<?xml version="1.0" standalone="no"?>
<!DOCTYPE svg PUBLIC "-//W3C//DTD SVG 20010904//EN"
 "http://www.w3.org/TR/2001/REC-SVG-20010904/DTD/svg10.dtd">
<svg version="1.0" xmlns="http://www.w3.org/2000/svg"
 width="260.000000pt" height="260.000000pt" viewBox="0 0 260.000000 260.000000"
 preserveAspectRatio="xMidYMid meet">
<metadata>
Created by potrace 1.14, written by Peter Selinger 2001-2017
</metadata>
<g transform="translate(0.000000,260.000000) scale(0.100000,-0.100000)"
fill="#000000" stroke="none">
<path d="M1321 2383 c-8 -27 -15 -52 -17 -58 -1 -5 -59 -199 -128 -429 -69
-231 -127 -429 -128 -442 -3 -25 -38 1 551 -407 156 -108 287 -197 291 -197 3
0 73 221 153 492 140 468 146 493 130 509 -10 9 -137 99 -283 200 -146 100
-287 199 -315 218 -27 19 -88 61 -134 94 -47 32 -90 61 -96 63 -6 3 -17 -17
-24 -43z"/>
<path d="M640 2078 c-58 -94 -106 -174 -108 -178 -1 -4 14 -27 33 -51 20 -24
44 -53 53 -64 116 -141 166 -195 172 -188 10 11 209 331 212 341 3 8 -238 305
-251 309 -3 1 -53 -75 -111 -169z"/>
<path d="M436 1782 c-27 -42 -77 -123 -112 -179 l-63 -102 126 -153 c69 -84
127 -154 128 -156 2 -2 17 21 34 50 18 29 49 80 71 113 21 33 57 91 79 128
l40 69 -116 141 c-64 78 -121 147 -127 154 -8 9 -23 -7 -60 -65z"/>
<path d="M810 1249 c-80 -54 -152 -103 -160 -109 -8 -6 -128 -86 -267 -179
l-252 -169 172 -133 c95 -73 231 -179 302 -234 72 -55 159 -123 195 -150 36
-27 67 -52 70 -55 3 -3 24 -20 47 -38 l43 -33 347 233 c192 128 378 253 415
279 l67 46 -406 314 c-224 173 -411 317 -417 320 -6 3 -76 -38 -156 -92z"/>
</g>
</svg>
