<svg width="332" height="295" viewBox="0 0 353 295" fill="none" xmlns="http://www.w3.org/2000/svg">
<g clip-path="url(#clip0_221_6458)">
<path d="M340.646 123.502C322.993 145.743 289.682 150.836 262.121 143.09C253.103 140.493 244.403 136.925 236.178 132.449C231.401 129.893 226.738 127.09 222.171 124.102C221.047 123.37 219.923 122.627 218.811 121.869C218.053 121.359 217.297 120.842 216.544 120.319C207.112 113.781 198.049 106.608 189.139 99.4774C166.895 81.6759 144.042 63.3265 116.712 54.8329C111.082 53.0839 103.798 52.2657 100.316 56.9648C97.2956 61.0445 99.1393 66.8207 101.695 71.197C111.177 87.4071 128.389 97.6421 145.615 105.513C162.842 113.383 181.089 119.76 196.064 131.267C211.039 142.774 222.472 161.064 219.409 179.526C216.769 195.436 203.584 208.362 188.255 213.995C172.925 219.625 155.828 218.841 139.893 215.185C123.958 211.526 108.831 205.142 93.4517 199.639C84.1794 196.318 72.0577 194.021 65.9052 201.621C60.7092 208.043 63.6958 218.173 70.0233 223.517C76.3508 228.862 84.9147 230.652 93.086 232.258C118.457 237.25 143.828 242.241 169.2 247.23C176.982 248.758 184.948 250.356 191.729 254.425C198.51 258.49 203.98 265.591 203.786 273.409C203.592 281.114 197.866 287.922 190.849 291.334C183.836 294.742 175.737 295.267 167.924 294.9C138.644 293.518 54.7016 247.688 34.5684 241.829C21.6314 238.068 7.48677 232.544 2.03146 220.391C-4.7609 205.262 6.41628 186.957 21.6732 180.048C36.9264 173.134 54.6101 174.665 71.2348 176.992C87.8594 179.319 105.032 182.281 121.215 177.859C137.398 173.438 152.225 159.026 150.628 142.557C149.238 128.227 136.137 117.429 122.35 112.67C111.558 108.943 100.076 107.93 88.7395 106.252C85.5927 105.79 82.4575 105.272 79.3528 104.634C71.4016 102.993 63.6455 100.54 56.2102 97.3155C48.4077 93.9389 40.9952 89.7476 34.0999 84.8136C28.6002 80.884 23.4606 76.4872 18.7401 71.6736C18.02 70.938 17.3076 70.1861 16.6028 69.4179C15.9324 68.6823 15.2695 67.9317 14.622 67.166C6.19533 57.2463 -0.0295159 45.0296 1.83728 32.4413C3.69999 19.8868 13.6315 9.43414 25.4561 4.41235C32.2903 1.51112 39.6617 0.212504 47.1245 0.0248435C52.5813 -0.0826028 58.0365 0.304355 63.4214 1.18083C88.3394 5.10669 111.173 17.0344 132.739 29.9492C154.301 42.864 175.314 57.0399 198.754 66.2465C222.194 75.4569 248.875 79.3565 272.654 71.0281C296.433 62.7035 315.968 39.989 314.806 15.154C330.577 28.5342 343.979 45.3524 349.915 65.0042C355.85 84.6559 353.465 107.348 340.646 123.502Z" fill="#3F3D56"/>
<path d="M227.012 97.8355C228.543 97.8355 229.784 96.6126 229.784 95.104C229.784 93.5955 228.543 92.3726 227.012 92.3726C225.481 92.3726 224.239 93.5955 224.239 95.104C224.239 96.6126 225.481 97.8355 227.012 97.8355Z" fill="#4E46CD"/>
<path d="M324.916 63.2963C327.283 63.2963 329.202 61.4056 329.202 59.0732C329.202 56.7408 327.283 54.8501 324.916 54.8501C322.548 54.8501 320.629 56.7408 320.629 59.0732C320.629 61.4056 322.548 63.2963 324.916 63.2963Z" fill="#FF6584"/>
<path d="M43.7752 193.497C44.6499 193.497 45.359 192.799 45.359 191.937C45.359 191.075 44.6499 190.376 43.7752 190.376C42.9005 190.376 42.1914 191.075 42.1914 191.937C42.1914 192.799 42.9005 193.497 43.7752 193.497Z" fill="#FF6584"/>
<path d="M89.2344 102.236C89.2354 103.59 89.0692 104.938 88.7393 106.252C85.5925 105.79 82.4573 105.273 79.3526 104.634C71.4014 102.993 63.6453 100.54 56.21 97.3157C57.4056 93.5122 59.9459 90.2572 63.3697 88.1415C66.7935 86.0259 70.8737 85.1899 74.8697 85.7853C78.8657 86.3807 82.5126 88.368 85.1483 91.3864C87.784 94.4049 89.2338 98.2544 89.2344 102.236V102.236Z" fill="#FF6584"/>
<path d="M297.487 88.0674C298.382 88.0674 299.107 87.353 299.107 86.4716C299.107 85.5902 298.382 84.8757 297.487 84.8757C296.593 84.8757 295.868 85.5902 295.868 86.4716C295.868 87.353 296.593 88.0674 297.487 88.0674Z" fill="#F0F0F0"/>
<path d="M149.298 263.718C150.193 263.718 150.918 263.003 150.918 262.122C150.918 261.241 150.193 260.526 149.298 260.526C148.403 260.526 147.678 261.241 147.678 262.122C147.678 263.003 148.403 263.718 149.298 263.718Z" fill="#F0F0F0"/>
<path d="M172.536 285.862C173.43 285.862 174.156 285.147 174.156 284.266C174.156 283.384 173.43 282.67 172.536 282.67C171.641 282.67 170.916 283.384 170.916 284.266C170.916 285.147 171.641 285.862 172.536 285.862Z" fill="#F0F0F0"/>
<path d="M28.9181 222.808C29.8127 222.808 30.5379 222.093 30.5379 221.212C30.5379 220.33 29.8127 219.616 28.9181 219.616C28.0235 219.616 27.2983 220.33 27.2983 221.212C27.2983 222.093 28.0235 222.808 28.9181 222.808Z" fill="#F0F0F0"/>
<path d="M108.537 193.157C109.431 193.157 110.157 192.443 110.157 191.561C110.157 190.68 109.431 189.966 108.537 189.966C107.642 189.966 106.917 190.68 106.917 191.561C106.917 192.443 107.642 193.157 108.537 193.157Z" fill="#F0F0F0"/>
<path d="M100.537 34.7718C101.431 34.7718 102.157 34.0573 102.157 33.1759C102.157 32.2946 101.431 31.5801 100.537 31.5801C99.6422 31.5801 98.917 32.2946 98.917 33.1759C98.917 34.0573 99.6422 34.7718 100.537 34.7718Z" fill="#F0F0F0"/>
<path d="M198.441 159.754C199.335 159.754 200.06 159.039 200.06 158.158C200.06 157.276 199.335 156.562 198.441 156.562C197.546 156.562 196.821 157.276 196.821 158.158C196.821 159.039 197.546 159.754 198.441 159.754Z" fill="#F0F0F0"/>
<path d="M210.631 187.528C211.526 187.528 212.251 186.813 212.251 185.932C212.251 185.05 211.526 184.336 210.631 184.336C209.736 184.336 209.011 185.05 209.011 185.932C209.011 186.813 209.736 187.528 210.631 187.528Z" fill="#F0F0F0"/>
<path d="M64.6251 38.2701C64.637 46.3278 62.7045 54.2728 58.9871 61.4499C58.4957 62.3957 57.975 63.3253 57.4252 64.2386C51.9813 73.296 43.8365 80.4804 34.0996 84.8137C28.6 80.8841 23.4604 76.4873 18.7398 71.6737C18.0198 70.9381 17.3074 70.1862 16.6026 69.418C15.9322 68.6824 15.2693 67.9317 14.6218 67.1661C6.19511 57.2463 -0.0297292 45.0296 1.83707 32.4414C3.69978 19.8869 13.6313 9.43418 25.4559 4.41238C32.2901 1.51115 39.6615 0.212563 47.1243 0.0249023C52.9594 5.10189 57.5595 11.4081 60.5832 18.4757C60.9642 19.3652 61.3146 20.266 61.6461 21.178C63.6231 26.6658 64.6307 32.4469 64.6251 38.2701V38.2701Z" fill="#4E46CD"/>
<path d="M88.2443 40.8973C88.2443 48.7152 80.4958 55.9664 66.4236 61.3222C63.6083 62.3956 60.5949 63.3677 57.4255 64.2385C45.5627 67.4963 31.4447 69.3016 16.6029 69.4179C15.9325 68.6823 15.2696 67.9316 14.6221 67.166C14.782 67.1697 14.942 67.1697 15.102 67.1697C31.22 67.1697 46.5113 65.158 58.9874 61.4498C61.2921 60.763 63.5017 60.0199 65.6006 59.2204C78.5377 54.3 85.9586 47.6193 85.9586 40.8973C85.9586 34.1753 78.5377 27.4983 65.6006 22.5741C64.3207 22.0862 63.0026 21.6208 61.6464 21.1779C61.315 20.2659 60.9645 19.3651 60.5836 18.4756C62.6102 19.0986 64.5568 19.7642 66.4236 20.4723C80.4958 25.8281 88.2443 33.0831 88.2443 40.8973Z" fill="#E4E4E4"/>
<path d="M17.4894 13.0032C18.384 13.0032 19.1092 12.2887 19.1092 11.4074C19.1092 10.526 18.384 9.81152 17.4894 9.81152C16.5948 9.81152 15.8696 10.526 15.8696 11.4074C15.8696 12.2887 16.5948 13.0032 17.4894 13.0032Z" fill="#F0F0F0"/>
<path d="M51.3942 23.137C52.2888 23.137 53.014 22.4225 53.014 21.5412C53.014 20.6598 52.2888 19.9453 51.3942 19.9453C50.4996 19.9453 49.7744 20.6598 49.7744 21.5412C49.7744 22.4225 50.4996 23.137 51.3942 23.137Z" fill="#F0F0F0"/>
<path d="M33.8703 53.1988C42.5697 53.1988 49.622 46.2507 49.622 37.6798C49.622 29.109 42.5697 22.1609 33.8703 22.1609C25.1709 22.1609 18.1187 29.109 18.1187 37.6798C18.1187 46.2507 25.1709 53.1988 33.8703 53.1988Z" fill="#F0F0F0"/>
<path opacity="0.3" d="M324.764 119.816C321.229 120.845 313.435 121.603 304.864 122.068C296.296 122.53 286.898 122.732 277.618 122.928C261.374 123.273 245.132 123.619 228.891 123.967C226.658 124.016 224.418 124.061 222.171 124.102C221.047 123.37 219.923 122.627 218.811 121.869C220.803 121.88 222.796 121.869 224.773 121.832C233.218 121.666 240.369 121.017 248.514 120.709C261.047 120.233 274.578 120.608 287.641 120.799C300.704 120.995 315.587 120.923 324.764 119.816Z" fill="#F0F0F0"/>
<path opacity="0.3" d="M75.4596 238.129L23.6807 195.631L73.9831 239.831C74.0805 239.993 74.2156 240.129 74.3772 240.229C74.5389 240.329 74.7224 240.389 74.9125 240.406C75.1026 240.422 75.2939 240.393 75.4704 240.322C75.647 240.25 75.8038 240.139 75.9277 239.996C76.0517 239.853 76.1393 239.683 76.1833 239.5C76.2272 239.317 76.2263 239.126 76.1805 238.944C76.1348 238.761 76.0455 238.592 75.9201 238.45C75.7948 238.309 75.6369 238.198 75.4596 238.129H75.4596Z" fill="#F0F0F0"/>
<path d="M36.1564 77.1832C37.051 77.1832 37.7762 76.4687 37.7762 75.5873C37.7762 74.7059 37.051 73.9915 36.1564 73.9915C35.2618 73.9915 34.5366 74.7059 34.5366 75.5873C34.5366 76.4687 35.2618 77.1832 36.1564 77.1832Z" fill="#F0F0F0"/>
<path d="M172.195 260.501L178.895 260.5L182.083 235.04L172.194 235.04L172.195 260.501Z" fill="#FFB6B6"/>
<path d="M170.486 258.345L172.372 258.345L179.735 255.395L183.681 258.345H183.681C185.911 258.345 188.05 259.218 189.627 260.771C191.204 262.325 192.09 264.432 192.09 266.629V266.898L170.487 266.899L170.486 258.345Z" fill="#2F2E41"/>
<path d="M122.021 260.501L115.321 260.5L112.134 235.04L122.022 235.04L122.021 260.501Z" fill="#FFB6B6"/>
<path d="M123.73 266.899L102.127 266.898V266.629C102.127 264.432 103.013 262.325 104.59 260.771C106.167 259.218 108.305 258.345 110.535 258.345H110.536L114.482 255.395L121.845 258.345L123.73 258.345L123.73 266.899Z" fill="#2F2E41"/>
<path d="M146.028 65.3765L139.244 70.4658L121.223 75.1678C121.223 75.1678 127.68 119.816 124.633 122.819C121.585 125.821 124.334 125.902 123.721 129.803C123.109 133.703 120.668 144.001 120.668 144.001H174.454C174.454 144.001 174.887 137.601 172.236 136.215C169.585 134.829 174.68 128.36 172.513 127.278C170.346 126.197 173.394 116.814 173.394 116.814L179.999 86.0937L162.432 72.5522L159.76 66.2102L146.028 65.3765Z" fill="#4E46CD"/>
<path d="M154.492 105.274C155.789 105.274 156.839 104.238 156.839 102.961C156.839 101.684 155.789 100.649 154.492 100.649C153.196 100.649 152.145 101.684 152.145 102.961C152.145 104.238 153.196 105.274 154.492 105.274Z" fill="#F2F2F2"/>
<path d="M120.668 144.001L118.45 200.269C118.45 200.269 108.874 241.829 110.537 242.921C112.201 244.014 112.906 250.529 112.906 250.529L122.332 251.621C122.332 251.621 122.332 247.251 124.55 245.612C126.768 243.973 147.284 166.945 147.284 166.945L167.299 241.42C167.299 241.42 167.8 245.612 169.463 245.612C171.127 245.612 171.681 251.621 171.681 251.621H181.108V245.612C181.108 245.612 185.343 244.289 183.68 239.919C182.016 235.548 174.454 144.001 174.454 144.001H120.668Z" fill="#2F2E41"/>
<path d="M153.072 62.0234C159.35 62.0234 164.439 57.0094 164.439 50.8243C164.439 44.6392 159.35 39.6252 153.072 39.6252C146.794 39.6252 141.705 44.6392 141.705 50.8243C141.705 57.0094 146.794 62.0234 153.072 62.0234Z" fill="#FFB6B6"/>
<path opacity="0.1" d="M172.513 101.117L174.731 102.756L175.84 95.1074L172.513 101.117Z" fill="black"/>
<path d="M122.286 75.1243C122.286 75.1243 119.513 74.578 117.85 79.4946C116.186 84.4113 110.087 102.985 110.087 106.263C110.087 109.541 148.071 124.003 148.071 124.003L144.119 110.343L126.722 101.346L122.286 75.1243Z" fill="#4E46CD"/>
<path d="M149.834 121.978C153.41 121.978 156.31 119.122 156.31 115.598C156.31 112.074 153.41 109.217 149.834 109.217C146.257 109.217 143.357 112.074 143.357 115.598C143.357 119.122 146.257 121.978 149.834 121.978Z" fill="#FFB6B6"/>
<path opacity="0.1" d="M126.215 94.5798L126.722 101.347L142.81 109.666L128.501 100.21L126.215 94.5798Z" fill="black"/>
<path d="M164.89 95.5445H164.681V89.9116C164.681 89.4834 164.595 89.0595 164.429 88.6639C164.263 88.2684 164.019 87.909 163.712 87.6063C163.404 87.3035 163.04 87.0634 162.638 86.8995C162.237 86.7357 161.806 86.6514 161.372 86.6514H149.259C148.824 86.6514 148.394 86.7357 147.992 86.8995C147.591 87.0634 147.226 87.3035 146.919 87.6062C146.612 87.909 146.368 88.2684 146.202 88.6639C146.035 89.0595 145.95 89.4834 145.95 89.9115V120.814C145.95 121.242 146.035 121.666 146.202 122.062C146.368 122.457 146.612 122.817 146.919 123.119C147.226 123.422 147.591 123.662 147.992 123.826C148.394 123.99 148.824 124.074 149.259 124.074H161.372C161.806 124.074 162.237 123.99 162.638 123.826C163.04 123.662 163.404 123.422 163.712 123.12C164.019 122.817 164.263 122.457 164.429 122.062C164.595 121.666 164.681 121.242 164.681 120.814V99.5541H164.89V95.5445Z" fill="#F0F0F0"/>
<path d="M179.999 86.0938C179.999 86.0938 181.662 87.1863 182.771 92.103C183.88 97.0197 191.088 115.594 188.316 119.964C185.543 124.334 184.725 128.999 175.299 122.443L162.255 110.677L171.681 101.936L175.563 104.668L179.999 86.0938Z" fill="#4E46CD"/>
<path d="M155.463 100.425C156.995 100.425 158.236 99.2017 158.236 97.6931C158.236 96.1846 156.995 94.9617 155.463 94.9617C153.932 94.9617 152.691 96.1846 152.691 97.6931C152.691 99.2017 153.932 100.425 155.463 100.425Z" fill="#4E46CD"/>
<path d="M163.489 110.058C167.066 110.058 169.965 107.201 169.965 103.677C169.965 100.154 167.066 97.2969 163.489 97.2969C159.913 97.2969 157.013 100.154 157.013 103.677C157.013 107.201 159.913 110.058 163.489 110.058Z" fill="#FFB6B6"/>
<path opacity="0.1" d="M125.909 115.002L144.5 123.104L125.393 119.425L125.909 115.002Z" fill="black"/>
<path d="M141.604 53.0561L140.043 47.2041C139.636 45.6772 139.226 44.1194 139.317 42.5433C139.409 40.9671 140.087 39.3406 141.435 38.4867C142.783 37.6329 144.84 37.8346 145.708 39.1621C145.872 37.0424 147.83 35.4119 149.906 34.8343C151.983 34.2567 154.188 34.4851 156.343 34.5826C158.499 34.68 160.774 34.612 162.634 33.5349C162.776 33.954 162.767 34.4084 162.608 34.8215C162.449 35.2346 162.15 35.581 161.762 35.8023C162.225 35.9267 162.718 35.8733 163.142 35.6529C163.566 35.4326 163.889 35.0618 164.046 34.6156C164.06 35.8432 163.6 37.0301 162.758 37.9354C163.561 37.543 164.483 37.4589 165.346 37.6995C166.208 37.94 166.948 38.488 167.423 39.2369C168.373 40.8585 167.841 42.8951 167.285 44.6854L164.434 53.8742C164.002 52.4774 163.92 51.0026 163.689 49.5602C163.458 48.1177 163.046 46.6447 162.08 45.5374C161.113 44.4302 159.472 43.789 158.099 44.3387C157.328 44.6472 156.741 45.273 156.045 45.7221C154.618 46.6435 152.802 46.7757 151.107 46.5882C149.411 46.4007 147.759 45.925 146.063 45.7349C145.002 45.616 143.817 45.6474 143.016 46.3441C142.465 46.908 142.101 47.6237 141.973 48.396C141.595 49.9356 141.446 51.5211 141.532 53.1028" fill="#2F2E41"/>
</g>
<defs>
<clipPath id="clip0_221_6458">
<rect width="353" height="295" fill="white"/>
</clipPath>
</defs>
</svg>
